<?xml version="1.0" encoding="UTF-8"?>
<svg version="1.1" xmlns="http://www.w3.org/2000/svg" width="847" height="245">
<path d="M0 0 C279.51 0 559.02 0 847 0 C847 80.85 847 161.7 847 245 C567.49 245 287.98 245 0 245 C0 164.15 0 83.3 0 0 Z " fill="#FEFEFC" transform="translate(0,0)"/>
<path d="M0 0 C0.09343942 14.27307093 0.16371123 28.54609443 0.20724869 42.81940842 C0.22814226 49.44677065 0.25649282 56.07392773 0.30175781 62.70117188 C0.3451515 69.09429191 0.36912377 75.48721436 0.37950897 81.88047028 C0.38691192 84.32218793 0.40136773 86.76389451 0.42292023 89.20552826 C0.45186718 92.62000582 0.45595952 96.03366209 0.45410156 99.44824219 C0.46848267 100.46244232 0.48286377 101.47664246 0.49768066 102.52157593 C0.45732457 109.35483893 0.45732457 109.35483893 -1.84088135 112.59698486 C-5.88368844 115.22403805 -9.2644707 115.12865613 -13.98046875 115.1328125 C-15.04410393 115.13506332 -15.04410393 115.13506332 -16.12922668 115.13735962 C-18.48203953 115.13973891 -20.83470198 115.13339356 -23.1875 115.125 C-23.99324463 115.12278442 -24.79898926 115.12056885 -25.62915039 115.11828613 C-30.83802007 115.10163537 -36.04660644 115.06715654 -41.25531006 115.02282715 C-43.098113 115.00750085 -44.94092834 114.9936046 -46.78375244 114.9810791 C-52.3049388 114.94329819 -57.82505852 114.88284634 -63.34561157 114.79046631 C-65.10917505 114.76358068 -66.87285079 114.74323097 -68.63656616 114.72955322 C-71.11260108 114.70836721 -73.58696128 114.6620586 -76.0625 114.609375 C-77.16015434 114.60751694 -77.16015434 114.60751694 -78.27998352 114.60562134 C-83.10409258 114.46628121 -85.60758343 113.42608422 -89 110 C-90.15805668 107.68388663 -90.12572134 106.36429345 -90.12698364 103.78674316 C-90.12980347 102.90339798 -90.13262329 102.0200528 -90.13552856 101.10993958 C-90.13249222 99.65269722 -90.13249222 99.65269722 -90.12939453 98.16601562 C-90.13114685 97.14481125 -90.13289917 96.12360687 -90.13470459 95.07145691 C-90.13911951 91.68303751 -90.13618636 88.29466996 -90.1328125 84.90625 C-90.13348564 82.55977366 -90.13445575 80.21329739 -90.13571167 77.86682129 C-90.13718816 72.9439223 -90.13503565 68.02104142 -90.13037109 63.09814453 C-90.12467384 56.77592782 -90.12795311 50.45375355 -90.13394356 44.13153839 C-90.13755049 39.28468504 -90.13640997 34.43784181 -90.13381577 29.59098816 C-90.13314686 27.25929255 -90.13397364 24.92759604 -90.13629532 22.59590149 C-90.13882399 19.3419042 -90.13497817 16.08797646 -90.12939453 12.83398438 C-90.13141876 11.86248947 -90.13344299 10.89099457 -90.13552856 9.89006042 C-90.13270874 9.00671524 -90.12988892 8.12337006 -90.12698364 7.21325684 C-90.12660662 6.44339195 -90.12622959 5.67352707 -90.12584114 4.88033295 C-90 3 -90 3 -89 1 C-81.62907184 0.85302449 -74.25805379 0.71132419 -66.88696289 0.57275391 C-64.39638137 0.52537483 -61.90581988 0.47692679 -59.4152832 0.42724609 C-39.60711136 0.03325364 -19.81112591 -0.06159034 0 0 Z " fill="#595E5E" transform="translate(100,118)"/>
<path d="M0 0 C49.62318465 0 49.62318465 0 60.125 5.5625 C60.80167725 5.91256104 61.47835449 6.26262207 62.17553711 6.62329102 C75.30259794 13.69797055 84.92016768 25.01619194 90 39 C94.52206944 54.39732798 93.02596916 70.77046441 85.42578125 84.93359375 C77.4242561 97.18767772 65.5828881 104.1984058 52 109 C34.89934409 111.85010932 17.33653817 110 0 110 C0 73.7 0 37.4 0 0 Z " fill="#575B5D" transform="translate(304,69)"/>
<path d="M0 0 C0.64922424 -0.00335861 1.29844849 -0.00671722 1.96734619 -0.01017761 C4.11545729 -0.01968099 6.26349027 -0.02163091 8.41162109 -0.02270508 C9.91034985 -0.02591988 11.40907829 -0.02928412 12.9078064 -0.03279114 C16.05345384 -0.03878214 19.19907382 -0.04063125 22.34472656 -0.04003906 C26.35589649 -0.03993785 30.36688777 -0.05354738 34.37801552 -0.07081127 C37.47688589 -0.08199097 40.57571404 -0.08395639 43.67460251 -0.08342934 C45.15202826 -0.08460211 46.62945537 -0.08898405 48.10686111 -0.0967617 C67.27288451 -0.18815229 67.27288451 -0.18815229 72.76742554 3.71217346 C75.28351702 7.12719336 75.09019827 10.23331773 75.01416016 14.31030273 C75.01474426 15.13018677 75.01532837 15.9500708 75.01593018 16.7947998 C75.01314689 19.50059578 74.98204408 22.20528553 74.95068359 24.91088867 C74.94322206 26.78846637 74.93752871 28.66605186 74.93353271 30.54364014 C74.91826951 35.48235625 74.87898172 40.42060087 74.8347168 45.35913086 C74.79377894 50.39975608 74.77552487 55.44045758 74.75537109 60.48120117 C74.71248818 70.36942902 74.64422847 80.25730712 74.56005859 90.14526367 C63.82463052 90.23795769 53.08929771 90.30902573 42.35355091 90.35251236 C37.36845066 90.37338418 32.38362427 90.40169454 27.39868164 90.44702148 C22.58761085 90.49049352 17.77680342 90.51440383 12.96555138 90.52477264 C11.13031557 90.53216157 9.29509412 90.54659047 7.45997047 90.5681839 C4.88860591 90.59723624 2.31832854 90.60121896 -0.25317383 90.59936523 C-1.01130875 90.61374634 -1.76944366 90.62812744 -2.55055237 90.64294434 C-6.1649984 90.61476333 -8.25240336 90.26310661 -11.33988953 88.32302856 C-18.00240672 81.41396304 -16.8816708 71.8517685 -16.83837891 62.91870117 C-16.84040327 61.44235084 -16.84331772 59.96600148 -16.84707642 58.48965454 C-16.85148 55.40828857 -16.84513082 52.3271849 -16.83105469 49.24584961 C-16.81393347 45.30725506 -16.82383455 41.36927262 -16.84177208 37.4307003 C-16.8526377 34.38682481 -16.84915143 31.34309335 -16.8413887 28.29921341 C-16.83939592 26.84722444 -16.84181339 25.39522215 -16.84882736 23.94324875 C-16.85649025 21.91211974 -16.84272978 19.88094447 -16.828125 17.84985352 C-16.82573822 16.69705902 -16.82335144 15.54426453 -16.82089233 14.35653687 C-16.1585794 8.77348771 -13.70478346 4.74372416 -9.43994141 1.14526367 C-6.08210621 0.02598527 -3.53922553 0.01148932 0 0 Z " fill="#595D5E" transform="translate(25.43994140625,16.854736328125)"/>
<path d="M0 0 C0.74211731 -0.00890762 1.48423462 -0.01781525 2.24884033 -0.0269928 C4.69357159 -0.04824296 7.13565663 -0.02598843 9.58032227 -0.0012207 C11.28516407 -0.00272376 12.99000517 -0.00615536 14.69483948 -0.01142883 C18.26517164 -0.01575808 21.83459993 0.00105806 25.40478516 0.03320312 C29.97268515 0.07295494 34.5388876 0.06369497 39.10684109 0.03896809 C42.62691565 0.02475791 46.14659639 0.03489349 49.66664314 0.0524807 C51.35028199 0.05831588 53.03396139 0.05704976 54.71758842 0.04845619 C57.07565104 0.04042915 59.43126083 0.06479373 61.7890625 0.09765625 C62.82493248 0.08483109 62.82493248 0.08483109 63.88172913 0.07174683 C69.44322559 0.20496898 71.74922411 1.87456143 75.45922852 5.76049805 C77.77388051 9.77449012 77.71238056 13.48251597 77.71801758 18.05761719 C77.72152222 18.77368637 77.72502686 19.48975555 77.7286377 20.2275238 C77.7374075 22.58366724 77.73162342 24.93950805 77.72485352 27.2956543 C77.72620139 28.93802447 77.72814294 30.58039425 77.73065186 32.22276306 C77.73359655 35.65994069 77.729326 39.09701418 77.7199707 42.53417969 C77.70856753 46.9381465 77.7151452 51.34186976 77.72711563 55.74582767 C77.73434425 59.13530816 77.73204185 62.52473095 77.72686005 65.91421318 C77.72552679 67.53811103 77.72715993 69.16201413 77.73181915 70.78590584 C77.73690187 73.05500287 77.72915026 75.32370574 77.71801758 77.59277344 C77.71642639 78.88341202 77.71483521 80.1740506 77.7131958 81.50379944 C77.47655945 84.53825829 77.06736433 86.22361118 75.45922852 88.76049805 C46.12123805 89.72147761 16.81142938 89.88057439 -12.54077148 89.76049805 C-12.6567024 79.04238292 -12.74550578 68.32441733 -12.79983234 57.60580254 C-12.82590863 52.62849634 -12.86127079 47.65161959 -12.91796875 42.67456055 C-12.97235865 37.86995355 -13.00220684 33.06575921 -13.0151577 28.26086807 C-13.02438506 26.42922597 -13.04240431 24.59760606 -13.06942177 22.76613998 C-13.10580577 20.19719678 -13.11071307 17.62995107 -13.10839844 15.06079102 C-13.12637482 14.30625137 -13.1443512 13.55171173 -13.16287231 12.77430725 C-13.12659216 9.04446856 -12.62722953 6.30459805 -10.47659302 3.28926086 C-6.93517676 0.23887049 -4.47887959 -0.08870036 0 0 Z " fill="#585D5E" transform="translate(124.540771484375,17.239501953125)"/>
<path d="M0 0 C29.02404101 -0.47069927 58.00472324 0.85179101 87 2 C89.15766935 5.51016971 89.25825218 8.33856732 89.2746582 12.41748047 C89.28419022 13.71918182 89.29372223 15.02088318 89.30354309 16.36203003 C89.30328163 17.78041613 89.3023444 19.19880224 89.30078125 20.6171875 C89.30467023 22.07683433 89.30900532 23.53648003 89.31376648 24.99612427 C89.32122294 28.05425689 89.32094197 31.11227405 89.31567383 34.17041016 C89.30988508 38.07994651 89.32679812 41.98900819 89.3500185 45.89846611 C89.36478746 48.91316468 89.36562318 51.92774984 89.36250877 54.94247818 C89.36302057 56.3833116 89.36823168 57.82415161 89.37832069 59.2649498 C89.3907254 61.28450625 89.38193176 63.30415882 89.37231445 65.32373047 C89.37294388 66.47082489 89.3735733 67.61791931 89.3742218 68.79977417 C88.94156325 72.49973251 87.99974195 74.86414988 86 78 C82.70263052 80.53934662 79.28256889 80.25347696 75.23120117 80.25878906 C74.22306618 80.26404602 74.22306618 80.26404602 73.19456482 80.26940918 C70.97726037 80.27819622 68.76027634 80.2723862 66.54296875 80.265625 C64.99603718 80.266973 63.44910603 80.26891466 61.9021759 80.27142334 C58.65992194 80.2743709 55.41777824 80.2700906 52.17553711 80.26074219 C48.03302519 80.24937644 43.89077327 80.25589108 39.74827099 80.26788712 C36.55253671 80.27514015 33.35686327 80.27280154 30.16112709 80.26763153 C28.63460573 80.26630305 27.10807873 80.26791447 25.58156395 80.27259064 C23.43988975 80.27770949 21.2986263 80.26987007 19.15698242 80.25878906 C17.33308235 80.25640228 17.33308235 80.25640228 15.47233582 80.25396729 C10.85285824 79.91609784 6.43943029 79.4874113 3.125 76.0625 C0.10892564 70.53303033 0.63123593 64.52124254 0.4375 58.375 C0.3950415 57.08513184 0.35258301 55.79526367 0.30883789 54.46630859 C-0.24101378 36.31755679 -0.08763178 18.15460744 0 0 Z " fill="#595D5D" transform="translate(111,152)"/>
<path d="M0 0 C21 0 21 0 26.0234375 4.625 C27.77246094 7.66943359 27.77246094 7.66943359 29.375 11 C30.33168343 12.71883303 31.28846338 14.43762234 32.25146484 16.15292358 C33.2300892 17.92043212 34.17258292 19.70369671 35.11035156 21.49316406 C38.05527821 26.95840003 41.40897809 32.1462602 44.75 37.375 C45.9855732 39.35130362 47.21868907 41.32914589 48.44921875 43.30859375 C51.80636163 48.69372498 55.17796069 54.06954787 58.5625 59.4375 C59.25907715 60.54520752 59.25907715 60.54520752 59.96972656 61.67529297 C63.2327272 66.84427404 66.60651716 71.90977574 70 77 C70.33 51.59 70.66 26.18 71 0 C77.6 0 84.2 0 91 0 C91 36.3 91 72.6 91 110 C69 110 69 110 63.9921875 105.41796875 C62.34301758 102.43237305 62.34301758 102.43237305 60.875 99.1875 C59.69005451 96.96808088 58.50384141 94.7493381 57.31640625 92.53125 C56.76098145 91.42265625 56.20555664 90.3140625 55.63330078 89.171875 C53.30643733 84.65309923 50.58943955 80.43868439 47.8125 76.1875 C46.84133102 74.65778305 45.87256546 73.12653751 44.90625 71.59375 C44.43058594 70.84222656 43.95492187 70.09070313 43.46484375 69.31640625 C41.94320041 66.91018091 40.42437164 64.50219862 38.90625 62.09375 C38.38828857 61.27237549 37.87032715 60.45100098 37.33666992 59.60473633 C36.37286189 58.07619823 35.40943364 56.54742054 34.4465332 55.01831055 C30.00812722 47.98309161 25.49882569 40.99817329 21 34 C20.67 59.08 20.34 84.16 20 110 C13.4 110 6.8 110 0 110 C0 73.7 0 37.4 0 0 Z " fill="#FED024" transform="translate(608,69)"/>
<path d="M0 0 C6.00923442 5.00899774 11.4765562 10.40941859 16.95117188 15.99023438 C20.20740075 19.2843631 23.48931802 22.47668631 27 25.5 C31.23697815 29.14878223 35.14864455 33.07272107 39.0625 37.0625 C43.86567022 41.9583061 48.72958655 46.60684652 54 51 C53.28303955 51.71623535 52.5660791 52.4324707 51.82739258 53.17041016 C49.1325502 55.86519337 46.44687558 58.56900162 43.76171875 61.2734375 C42.2534077 62.78913247 40.7446095 64.30434063 39.2355957 65.81933594 C38.2079943 66.8519611 37.18129286 67.88548268 36.15551758 68.91992188 C30.84843946 74.27045175 25.52343446 79.52689557 19.78979492 84.42626953 C16.2191128 87.56589809 12.96470006 91.03296925 9.66992188 94.45703125 C6.6559537 97.53280577 3.85395329 99.96934557 0 102 C-0.02979812 98.6250196 -0.04705848 95.25007419 -0.0625 91.875 C-0.07087891 90.94300781 -0.07925781 90.01101562 -0.08789062 89.05078125 C-0.10661484 83.54586234 0.09606747 78.10456366 0.50610352 72.61376953 C0.59803482 71.37015656 0.68996613 70.12654358 0.78468323 68.84524536 C0.85573776 67.90631439 0.9267923 66.96738342 1 66 C0.16969269 66.00523682 -0.66061462 66.01047363 -1.51608276 66.01586914 C-23.93237918 66.13659946 -46.30576546 65.7553697 -68.71105957 65.07287598 C-72.82940111 64.94854476 -76.94791088 64.83004374 -81.06640625 64.7109375 C-89.04444026 64.47941137 -97.0222557 64.24130254 -105 64 C-105 55.75 -105 47.5 -105 39 C-70.02 39 -35.04 39 1 39 C0.67 34.71 0.34 30.42 0 26 C-0.06813606 23.68176221 -0.10954963 21.36217713 -0.09765625 19.04296875 C-0.09282227 17.34624023 -0.09282227 17.34624023 -0.08789062 15.61523438 C-0.07532227 13.91850586 -0.07532227 13.91850586 -0.0625 12.1875 C-0.05798828 11.00607422 -0.05347656 9.82464844 -0.04882812 8.60742188 C-0.03721194 5.73822479 -0.02088167 2.869142 0 0 Z " fill="#FED027" transform="translate(216,78)"/>
<path d="M0 0 C10.01597011 7.20725891 16.25601304 15.91107821 18.3125 28.25 C18.3125 32.21 18.3125 36.17 18.3125 40.25 C-1.4875 40.25 -21.2875 40.25 -41.6875 40.25 C-39.13783063 48.78726941 -39.13783063 48.78726941 -33.6875 54.25 C-33.048125 54.806875 -32.40875 55.36375 -31.75 55.9375 C-26.78713671 59.09568573 -21.48846091 60.0787087 -15.6875 59.25 C-10.57449194 57.80586795 -6.66095849 56.22345849 -2.875 52.4375 C-2.153125 51.715625 -1.43125 50.99375 -0.6875 50.25 C3.26975702 50.60356936 6.55767207 52.13628567 10.125 53.8125 C11.10082031 54.26753906 12.07664062 54.72257812 13.08203125 55.19140625 C14.18611328 55.71541016 14.18611328 55.71541016 15.3125 56.25 C10.43597981 66.20622872 2.69837446 71.62841265 -7.6875 75.25 C-20.87961895 78.0272882 -32.61960098 76.57186147 -44.25 69.74609375 C-52.95401877 63.64445897 -59.14178402 53.41650138 -61.375 43.0625 C-62.54867365 28.74368148 -60.26436454 17.82292025 -51.234375 6.4140625 C-38.36086284 -7.89678354 -15.99909921 -10.05657665 0 0 Z " fill="#FECF25" transform="translate(770.6875,104.75)"/>
<path d="M0 0 C5.70910778 5.28886825 10.53385437 10.88432195 11.26127625 18.86735535 C11.34675934 22.37242527 11.33701076 25.86524962 11.29296875 29.37109375 C11.28872391 30.64855972 11.28447906 31.9260257 11.28010559 33.24220276 C11.2662045 36.61748297 11.2393115 39.99214052 11.20599365 43.36724854 C11.17515321 46.81964779 11.1615706 50.2721117 11.14648438 53.72460938 C11.11347314 60.4832654 11.06171958 67.24154762 11 74 C5.39 74 -0.22 74 -6 74 C-6.33 70.37 -6.66 66.74 -7 63 C-7.66 63.721875 -8.32 64.44375 -9 65.1875 C-16.25165758 72.39830317 -24.79771978 76.11076165 -34.9375 76.4375 C-42.23279556 76.24264702 -47.55108272 75.11729062 -53.03125 70.1640625 C-58.84323076 63.94714865 -60.55883929 58.33160739 -60.375 49.875 C-59.43724788 42.68556705 -55.4509788 36.41062943 -50.109375 31.60546875 C-40.57354167 24.34764005 -31.78659572 22.71188534 -20.09423828 23.71386719 C-15.43199197 24.3508633 -11.19946341 25.92801805 -7 28 C-7.40245963 22.16433541 -8.12453544 18.62902712 -12 14 C-17.15696504 10.26120035 -21.6735131 9.47279276 -28 10 C-33.40679158 11.89134915 -37.22640971 14.75471093 -41 19 C-42.75140143 18.54705135 -44.50107344 18.08741252 -46.25 17.625 C-47.22453125 17.36976562 -48.1990625 17.11453125 -49.203125 16.8515625 C-51.65837303 16.10401491 -53.75617405 15.22876183 -56 14 C-53.8884972 6.49243447 -47.62820423 0.70297368 -41.0078125 -3.03515625 C-28.78980718 -8.90645452 -11.22336498 -7.72827453 0 0 Z " fill="#565A5C" transform="translate(549,105)"/>
<path d="M0 0 C6.27 0 12.54 0 19 0 C19.01458252 1.37140137 19.02916504 2.74280273 19.04418945 4.15576172 C19.10249803 9.28117954 19.17972771 14.40617291 19.26245117 19.53125 C19.29554802 21.74244254 19.32362656 23.95371647 19.34643555 26.16503906 C19.38026297 29.35777218 19.43259209 32.54976958 19.48828125 35.7421875 C19.49467117 36.71864227 19.5010611 37.69509705 19.50764465 38.70114136 C19.66835401 46.33481529 20.77558151 53.44093041 24.875 60 C28.40686146 63.3241049 30.99699516 63.91778649 35.8125 64.3125 C40.25207733 64.15334534 44.22798464 63.44213815 48 61 C52.42138342 55.84536735 54.08425464 50.75845727 54.20532227 44.04785156 C54.22526749 43.06713684 54.24521271 42.08642212 54.26576233 41.07598877 C54.29083107 39.4992337 54.29083107 39.4992337 54.31640625 37.890625 C54.33718735 36.80867859 54.35796844 35.72673218 54.37937927 34.61199951 C54.44472931 31.15806387 54.50369229 27.70405263 54.5625 24.25 C54.60569904 21.90754429 54.64931378 19.5650962 54.69335938 17.22265625 C54.80039587 11.48184818 54.90170448 5.74096412 55 0 C61.27 0 67.54 0 74 0 C74 26.07 74 52.14 74 79 C67.73 79 61.46 79 55 79 C54.505 75.535 54.505 75.535 54 72 C53.5153125 72.39832031 53.030625 72.79664063 52.53125 73.20703125 C43.05951298 80.69334647 35.1654582 82.16778132 23 81 C15.54143805 79.11603681 9.7411764 75.78902905 5.375 69.375 C0.29350674 60.54485111 -0.42792604 52.02818225 -0.29296875 41.9921875 C-0.28872391 40.7855545 -0.28447906 39.57892151 -0.28010559 38.33572388 C-0.26343155 34.51524707 -0.2257995 30.695315 -0.1875 26.875 C-0.17243863 24.270841 -0.15875278 21.66667366 -0.14648438 19.0625 C-0.11356484 12.70812627 -0.06186022 6.35415521 0 0 Z " fill="#595E5F" transform="translate(405,100)"/>
<path d="M0 0 C31.48679577 0 31.48679577 0 42.5625 10.125 C50.85651817 18.67648215 52.46553672 28.7516506 52.33203125 40.26953125 C51.46284302 50.03511669 47.32963714 57.93399693 40.53125 64.90234375 C28.61167128 74.78014278 15.11258978 73 0 73 C0 48.91 0 24.82 0 0 Z " fill="#FDFDFC" transform="translate(324,88)"/>
<path d="M0 0 C6.27 0 12.54 0 19 0 C19 7.59 19 15.18 19 23 C24.94 23 30.88 23 37 23 C37 28.28 37 33.56 37 39 C31.06 39 25.12 39 19 39 C19.07406327 44.6058231 19.15694876 50.21006898 19.26245117 55.81518555 C19.29565962 57.72102631 19.32370425 59.62696446 19.34643555 61.53295898 C19.38005668 64.27630015 19.43237595 67.01875222 19.48828125 69.76171875 C19.49467117 70.61086349 19.5010611 71.46000824 19.50764465 72.33488464 C19.62346295 77.01844004 19.95452304 80.20299959 23 84 C27.05173285 86.31527592 31.42984293 86.53523826 36 87 C36 91.95 36 96.9 36 102 C30.82770776 104.58614612 22.66957758 103.71996741 17 103 C10.54500215 100.84568422 6.31444076 97.07022646 2.9375 91.22265625 C0.16849246 84.65780087 -0.27582133 78.96418284 -0.1953125 71.91015625 C-0.1924826 70.96563095 -0.18965271 70.02110565 -0.18673706 69.04795837 C-0.17560684 66.05267276 -0.1505156 63.05769414 -0.125 60.0625 C-0.11496095 58.0227908 -0.10583672 55.98307688 -0.09765625 53.94335938 C-0.07569096 48.9621226 -0.04121076 43.98111322 0 39 C-3.63 39 -7.26 39 -11 39 C-11 33.72 -11 28.44 -11 23 C-7.37 23 -3.74 23 0 23 C0 15.41 0 7.82 0 0 Z " fill="#FED027" transform="translate(802,77)"/>
<path d="M0 0 C5.94 0 11.88 0 18 0 C18 35.97 18 71.94 18 109 C12.06 109 6.12 109 0 109 C0 73.03 0 37.06 0 0 Z " fill="#54595A" transform="translate(574,70)"/>
<path d="M0 0 C1.33973877 0.00616333 1.33973877 0.00616333 2.70654297 0.01245117 C4.19988159 0.01414307 4.19988159 0.01414307 5.72338867 0.01586914 C6.78775146 0.0289209 7.85211426 0.04197266 8.94873047 0.05541992 C10.02791748 0.06331543 11.10710449 0.07121094 12.21899414 0.0793457 C36.46267396 0.33554891 36.46267396 0.33554891 40.82373047 3.24291992 C41.19604492 6.23632812 41.19604492 6.23632812 41.18701172 10.04370117 C41.18775948 11.05378487 41.18775948 11.05378487 41.18852234 12.08427429 C41.18618037 13.51080266 41.17644443 14.93733504 41.15991211 16.36376953 C41.13643212 18.53675792 41.13933549 20.70850974 41.14599609 22.8815918 C41.09930592 34.48850165 41.09930592 34.48850165 38.82373047 39.24291992 C29.75093652 40.04556836 20.67998284 40.41840868 11.57373047 40.55541992 C10.56173584 40.58506836 9.54974121 40.6147168 8.50708008 40.64526367 C7.55454346 40.65299805 6.60200684 40.66073242 5.62060547 40.66870117 C4.3420166 40.69057495 4.3420166 40.69057495 3.03759766 40.71289062 C0.82373047 40.24291992 0.82373047 40.24291992 -0.93530273 38.36328125 C-5.61609437 30.36550919 -4.26564593 18.06659719 -4.36376953 8.99291992 C-4.37794922 7.75026367 -4.39212891 6.50760742 -4.40673828 5.22729492 C-4.13536808 1.71328077 -3.64246155 0.40657945 0 0 Z " fill="#FCFCFA" transform="translate(137.17626953125,177.757080078125)"/>
<path d="M0 0 C2.143592 0.01848137 4.28675582 0.02050763 6.43041992 0.02026367 C16.89039807 0.05786993 16.89039807 0.05786993 19.1862793 1.20581055 C19.23563754 6.43854386 19.27197879 11.67114231 19.29614258 16.90405273 C19.30621361 18.68500122 19.31987115 20.46593312 19.3371582 22.24682617 C19.36135842 24.80350838 19.37275114 27.3599724 19.3815918 29.91674805 C19.39191437 30.71575531 19.40223694 31.51476257 19.41287231 32.33798218 C19.41327156 34.29538274 19.30868998 36.25224131 19.1862793 38.20581055 C16.5460639 40.84602595 14.6313499 40.44383777 11.03916931 40.45805359 C10.19955154 40.45086807 9.35993378 40.44368256 8.49487305 40.4362793 C7.63442886 40.43582108 6.77398468 40.43536285 5.88746643 40.43489075 C4.06754173 40.4318676 2.24761963 40.42397943 0.42773438 40.41162109 C-2.36833795 40.39336202 -5.16407937 40.39111139 -7.96020508 40.39135742 C-9.72518192 40.38644245 -11.4901565 40.38061422 -13.25512695 40.3737793 C-14.09676895 40.37266647 -14.93841095 40.37155365 -15.80555725 40.3704071 C-21.69767365 40.3218576 -21.69767365 40.3218576 -22.8137207 39.20581055 C-22.90230716 36.4668697 -22.92895549 33.75327785 -22.91137695 31.0144043 C-22.90996201 30.19456558 -22.90854706 29.37472687 -22.90708923 28.53004456 C-22.90147359 25.90109672 -22.8889185 23.27223281 -22.8762207 20.64331055 C-22.87120772 18.86531698 -22.86664446 17.08732209 -22.86254883 15.30932617 C-22.85149909 10.9414551 -22.83422402 6.57364707 -22.8137207 2.20581055 C-15.20899958 0.0608892 -7.84996187 -0.0702437 0 0 Z " fill="#FDFDFC" transform="translate(58.813720703125,142.794189453125)"/>
<path d="M0 0 C0.86149155 0.00718552 1.72298309 0.01437103 2.61058044 0.02177429 C3.49322067 0.02223251 4.3758609 0.02269073 5.2852478 0.02316284 C7.1522506 0.02618617 9.01925086 0.03407487 10.88621521 0.0464325 C13.75471358 0.06469078 16.62288941 0.0669422 19.49143982 0.06669617 C21.3019895 0.07161116 23.11253699 0.0774394 24.92308044 0.08427429 C25.78659622 0.08538712 26.650112 0.08649994 27.53979492 0.08764648 C33.58437804 0.13619689 33.58437804 0.13619689 34.70042419 1.25224304 C34.78893949 3.84583626 34.81568364 6.41263996 34.79808044 9.00614929 C34.7966655 9.78159592 34.79525055 10.55704254 34.79379272 11.35598755 C34.78817765 13.84227799 34.77562266 16.32847965 34.76292419 18.81474304 C34.75791113 20.49638237 34.75334789 22.1780231 34.74925232 23.85966492 C34.73820333 27.9905587 34.72092864 32.1213858 34.70042419 36.25224304 C30.30480315 38.43353681 26.21445022 38.5436313 21.40745544 38.51786804 C20.62021591 38.51978149 19.83297638 38.52169495 19.0218811 38.52366638 C17.36532774 38.52502264 15.70876355 38.52136539 14.05223083 38.51298523 C11.51089343 38.50223445 8.97025599 38.51292121 6.42893982 38.52568054 C4.81761013 38.52435969 3.20628088 38.52179884 1.59495544 38.51786804 C0.83350723 38.5219165 0.07205902 38.52596497 -0.71246338 38.53013611 C-6.06962497 38.48219388 -6.06962497 38.48219388 -8.29957581 36.25224304 C-8.49914551 33.69473852 -8.57944407 31.24786164 -8.56520081 28.68974304 C-8.56711426 27.94265076 -8.56902771 27.19555847 -8.57099915 26.42582703 C-8.57236078 24.84550134 -8.5686658 23.26516446 -8.56031799 21.68486023 C-8.5496178 19.26175382 -8.5602136 16.83938881 -8.57301331 14.41630554 C-8.57169171 12.88244973 -8.5691293 11.34859439 -8.56520081 9.81474304 C-8.56924927 9.08763123 -8.57329773 8.36051941 -8.57746887 7.6113739 C-8.51236876 0.65044584 -6.76222041 0.02608918 0 0 Z " fill="#FAFAF9" transform="translate(43.29957580566406,43.74775695800781)"/>
<path d="M0 0 C1.22264305 -0.0049926 1.22264305 -0.0049926 2.46998596 -0.01008606 C4.19751418 -0.01515867 5.92505223 -0.01749428 7.65258789 -0.01733398 C10.3017587 -0.01951917 12.95051241 -0.03766746 15.59960938 -0.05664062 C17.27473815 -0.05957469 18.94986892 -0.0615594 20.625 -0.0625 C21.42087021 -0.06968552 22.21674042 -0.07687103 23.03672791 -0.08427429 C28.65008398 -0.06085352 28.65008398 -0.06085352 30.87890625 2.16796875 C31.0539362 4.74900181 31.11052904 7.22105038 31.07421875 9.80078125 C31.07138885 10.55261688 31.06855896 11.30445251 31.06564331 12.07907104 C31.05443499 14.48386453 31.02932977 16.88828756 31.00390625 19.29296875 C30.99387727 20.92186963 30.98475128 22.55077633 30.9765625 24.1796875 C30.9544936 28.17592431 30.91995976 32.17188369 30.87890625 36.16796875 C25.92309824 37.77224382 21.74492577 38.42409511 16.484375 38.43359375 C15.81094559 38.4355072 15.13751617 38.43742065 14.44367981 38.43939209 C13.03447084 38.44074249 11.62524894 38.43712688 10.21606445 38.42871094 C8.05457054 38.41790961 5.89389177 38.4286874 3.73242188 38.44140625 C2.35807108 38.4400861 0.9837208 38.43752669 -0.390625 38.43359375 C-1.63432861 38.43133789 -2.87803223 38.42908203 -4.15942383 38.42675781 C-7.12109375 38.16796875 -7.12109375 38.16796875 -9.12109375 36.16796875 C-9.30847024 33.52680762 -9.37679241 30.99242895 -9.3515625 28.3515625 C-9.35110428 27.5799025 -9.35064606 26.80824249 -9.35017395 26.01319885 C-9.34715162 24.38158633 -9.33926588 22.7499767 -9.3269043 21.1184082 C-9.30864162 18.61203875 -9.30639463 16.10603842 -9.30664062 13.59960938 C-9.30172573 12.01692387 -9.29589754 10.43424088 -9.2890625 8.8515625 C-9.28794968 8.09741562 -9.28683685 7.34326874 -9.28569031 6.56626892 C-9.21542108 -1.0797665 -6.87581436 0.0095897 0 0 Z " fill="#FCFCFB" transform="translate(145.12109375,42.83203125)"/>
<path d="M0 0 C1.3669169 0.64011718 2.72723601 1.29623733 4.0625 2 C3.839736 7.45771799 2.61277417 10.41652294 -1.1171875 14.42578125 C-7.04688601 19.55382524 -13.81314733 21.3010138 -21.4921875 21.22265625 C-24.65463392 20.93470186 -26.51784071 20.04158753 -28.9375 18 C-31.0392211 14.84741835 -31.47390631 12.8943518 -31.390625 9.1328125 C-30.42283722 4.57753554 -26.95061681 1.34207787 -23.1796875 -1.171875 C-16.15834467 -3.76512357 -6.79733953 -2.74227432 0 0 Z " fill="#FBFCFA" transform="translate(538.9375,144)"/>
<path d="M0 0 C4.32387969 2.15438062 6.67607517 4.2728073 9.25 8.375 C9.745 11.84 9.745 11.84 10.25 15.375 C-2.95 15.375 -16.15 15.375 -29.75 15.375 C-28.51158214 9.18291069 -26.76000083 5.47096917 -21.51171875 1.81640625 C-14.06027962 -2.27435271 -7.95670061 -3.11692239 0 0 Z " fill="#FEFDFA" transform="translate(758.75,115.625)"/>
<path d="M0 0 C6.27 0 12.54 0 19 0 C19 7.59 19 15.18 19 23 C24.61 23 30.22 23 36 23 C36 27.95 36 32.9 36 38 C30.39 38 24.78 38 19 38 C19 37.67 19 37.34 19 37 C24.28 37 29.56 37 35 37 C35 33.04 35 29.08 35 25 C33.86820313 25.02320312 32.73640625 25.04640625 31.5703125 25.0703125 C30.08854825 25.08906901 28.60677688 25.10726934 27.125 25.125 C26.37863281 25.14175781 25.63226562 25.15851563 24.86328125 25.17578125 C22.90805539 25.1933959 20.95257979 25.10320189 19 25 C17 23 17 23 16.77294922 20.84521484 C16.78342285 19.97590332 16.79389648 19.1065918 16.8046875 18.2109375 C16.81113281 17.26992187 16.81757812 16.32890625 16.82421875 15.359375 C16.84097656 14.37453125 16.85773437 13.3896875 16.875 12.375 C16.88402344 11.38242188 16.89304687 10.38984375 16.90234375 9.3671875 C16.92595751 6.91135612 16.9618293 4.45564826 17 2 C12.05 2 7.1 2 2 2 C2.01160156 3.50433594 2.02320313 5.00867188 2.03515625 6.55859375 C2.04453249 8.51822793 2.05363287 10.47786345 2.0625 12.4375 C2.07087891 13.43072266 2.07925781 14.42394531 2.08789062 15.44726562 C2.09111328 16.39150391 2.09433594 17.33574219 2.09765625 18.30859375 C2.10289307 19.18314209 2.10812988 20.05769043 2.11352539 20.95874023 C2 23 2 23 1 24 C-2.33618231 24.14257189 -5.65975606 24.04228157 -9 24 C-9 28.29 -9 32.58 -9 37 C-6.03 37 -3.06 37 0 37 C0 37.33 0 37.66 0 38 C-3.3 38 -6.6 38 -10 38 C-10 33.05 -10 28.1 -10 23 C-6.7 23 -3.4 23 0 23 C0 15.41 0 7.82 0 0 Z " fill="#FEC80D" transform="translate(802,77)"/>
<path d="M0 0 C0.33 0 0.66 0 1 0 C1.04634803 8.53623448 1.08188171 17.07241635 1.10362434 25.60874557 C1.1140599 29.57254227 1.12821492 33.53625286 1.15087891 37.5 C1.17261545 41.32550147 1.18457034 45.15092012 1.18975449 48.97647858 C1.19344879 50.43571527 1.20066283 51.89494744 1.21146011 53.35414886 C1.225986 55.39863365 1.22797751 57.44277657 1.22705078 59.48730469 C1.231492 60.65090515 1.23593323 61.81450562 1.24050903 63.0133667 C1.0075066 65.90678331 0.51118484 67.55809595 -1 70 C-2.10402242 66.68793275 -2.1336193 64.21304715 -2.14526367 60.72436523 C-2.15164352 59.42969833 -2.15802338 58.13503143 -2.16459656 56.8011322 C-2.16612488 55.3869531 -2.16723903 53.97277349 -2.16796875 52.55859375 C-2.17118155 51.11035631 -2.17454565 49.6621192 -2.17805481 48.21388245 C-2.18404088 45.18009691 -2.18589514 42.14633985 -2.18530273 39.11254883 C-2.18520091 35.21951403 -2.19887643 31.32666078 -2.21607494 27.43366909 C-2.22717367 24.44402726 -2.22922264 21.4544297 -2.22869301 18.46476936 C-2.22987545 17.02900629 -2.23431193 15.59324215 -2.24202538 14.15749931 C-2.25178589 12.15377004 -2.24769322 10.1499876 -2.24291992 8.14624023 C-2.24434494 7.00501205 -2.24576996 5.86378387 -2.24723816 4.68797302 C-2 2 -2 2 0 0 Z " fill="#5E6464" transform="translate(199,158)"/>
<path d="M0 0 C0.33 0 0.66 0 1 0 C1 5.28 1 10.56 1 16 C-4.94 16 -10.88 16 -17 16 C-16.979375 18.43375 -16.95875 20.8675 -16.9375 23.375 C-16.91132489 29.64042737 -17.16290055 35.78154694 -18 42 C-18.33 42 -18.66 42 -19 42 C-19 33.09 -19 24.18 -19 15 C-15.6717269 13.33586345 -12.00266027 14.18132594 -8.375 14.4375 C-7.57320312 14.48970703 -6.77140625 14.54191406 -5.9453125 14.59570312 C-3.96320897 14.72548371 -1.98155501 14.86209735 0 15 C0 10.05 0 5.1 0 0 Z " fill="#FED541" transform="translate(838,100)"/>
<path d="M0 0 C0.70189453 0.00451172 1.40378906 0.00902344 2.12695312 0.01367188 C3.85550538 0.02543073 5.58401365 0.04336546 7.3125 0.0625 C7.3125 0.3925 7.3125 0.7225 7.3125 1.0625 C9.7875 1.5575 9.7875 1.5575 12.3125 2.0625 C12.3125 2.3925 12.3125 2.7225 12.3125 3.0625 C9.04174117 3.1205476 5.77111476 3.15611165 2.5 3.1875 C1.57123047 3.20425781 0.64246094 3.22101563 -0.31445312 3.23828125 C-1.20712891 3.24472656 -2.09980469 3.25117188 -3.01953125 3.2578125 C-3.84171143 3.26828613 -4.6638916 3.27875977 -5.51098633 3.28955078 C-7.6875 3.0625 -7.6875 3.0625 -10.6875 1.0625 C-7.06882441 -0.1437252 -3.76243749 -0.04566918 0 0 Z " fill="#5F6465" transform="translate(164.6875,152.9375)"/>
<path d="M0 0 C5.28 0 10.56 0 16 0 C16 0.99 16 1.98 16 3 C8.08 3 0.16 3 -8 3 C-8 2.67 -8 2.34 -8 2 C-5.36 1.67 -2.72 1.34 0 1 C0 0.67 0 0.34 0 0 Z " fill="#626667" transform="translate(67,118)"/>
<path d="M0 0 C0.33 0 0.66 0 1 0 C1.23370892 5.22172507 0.5683011 9.20875692 -1.1875 14.125 C-1.79658203 15.89230469 -1.79658203 15.89230469 -2.41796875 17.6953125 C-4.12523221 21.26159617 -6.06524541 23.38584885 -9 26 C-8.12584249 23.6689133 -7.23124554 21.41222031 -6.01171875 19.23828125 C-3.3720382 14.50605394 -2.49449292 10.61507657 -2.2734375 5.19921875 C-2 3 -2 3 0 0 Z " fill="#414949" transform="translate(394,132)"/>
<path d="M0 0 C0.33 0.66 0.66 1.32 1 2 C-5.93 1.505 -5.93 1.505 -13 1 C-13 0.67 -13 0.34 -13 0 C-11.58456585 -0.19658808 -10.16755969 -0.38187546 -8.75 -0.5625 C-7.96109375 -0.66691406 -7.1721875 -0.77132812 -6.359375 -0.87890625 C-3.95874887 -1.00211719 -2.25079123 -0.83159765 0 0 Z " fill="#616667" transform="translate(355,176)"/>
<path d="M0 0 C0.66 0.33 1.32 0.66 2 1 C1.2884375 1.928125 1.2884375 1.928125 0.5625 2.875 C-1.02417441 4.90705546 -1.02417441 4.90705546 -2 7 C-4.5625 7.625 -4.5625 7.625 -7 8 C-6.02133662 6.85373678 -5.04205413 5.70800212 -4.0625 4.5625 C-3.51722656 3.92441406 -2.97195313 3.28632813 -2.41015625 2.62890625 C-1.63204305 1.73008851 -0.84063472 0.84063472 0 0 Z " fill="#3A4142" transform="translate(501,135)"/>
</svg>
